# xmcd
#
# Track frame offsets: 
#        225
#        11184
#        22287
#        35703
#        47548
#        53109
#        63579
#        77546
#        90404
#        112993
#        129907
#        146182
#        163439
#        177100
#        187931
#        197079
#
# Disc length: 2775 seconds
#
# Revision: 4
# Processed by: cddbd v1.5.2PL0 Copyright (c) Steve Scherf et al.
# Submitted via: ExactAudioCopyFreeDBPlugin 1.0
#
DISCID=dd0ad410
DTITLE=Eric Clapton - Alone With My Friends [CD 2)
DYEAR=1997
DGENRE=Blues/Rock
TTITLE0=The Yardbirds - Shapes Of Things
TTITLE1=The Yardbirds - Heart Full Of Soul
TTITLE2=The  Yardbirds - Still I'm Said
TTITLE3=The  Yardbirds - Steeled Blues
TTITLE4=Eric Clapton with Jimmy Page - Choker
TTITLE5=Eric Clapton with Jimmy Page - Pound And Stomps
TTITLE6=Eric Clapton with Jimmy Page - Draggin' My Tail
TTITLE7=Eric Clapton with Jimmy Page - Freight Loader
TTITLE8=Eric Clapton feat. Jack Bruce and Ginger Baker - Five Long Years
TTITLE9=Eric Clapton feat. Jack Bruce and Ginger Baker - (They Call It) 
TTITLE9=Stormy Monday Blues
TTITLE10=Eric Clapton feat. Jack Bruce and Ginger Baker - Early In The M
TTITLE10=orning
TTITLE11=Eric Clapton feat. Jack Bruce and Ginger Baker - Big Boss Man
TTITLE12=Eric Clapto with Jeff Beck - Jeff's Blues
TTITLE13=The Yardbirds feat. Eric Clapton - Evil Heated You
TTITLE14=Eric Clapton and The Yardbirds - I Ain't Got You
TTITLE15=The Yardbirds feat. Eric Clapton - For Your Love
EXTD=
EXTT0=
EXTT1=
EXTT2=
EXTT3=
EXTT4=
EXTT5=
EXTT6=
EXTT7=
EXTT8=
EXTT9=
EXTT10=
EXTT11=
EXTT12=
EXTT13=
EXTT14=
EXTT15=
PLAYORDER=
